<svg width="80" height="80" viewBox="0 0 80 80" fill="none" xmlns="http://www.w3.org/2000/svg">
<style>
  .logo-bg { fill: #0a0a0a; opacity: 0.05; }
  .logo-fg { fill: #0a0a0a; }
  @media (prefers-color-scheme: dark) {
    .logo-bg { fill: #fafafa; }
    .logo-fg { fill: #fafafa; }
  }
</style>
<path class="logo-bg" d="M69.9812 44.99L39.9887 74.9824L9.99622 44.99V34.9925L39.9887 5L69.9812 34.9925V44.99Z"/>
<path class="logo-fg" d="M42.4874 4.99937V14.9969C42.4874 15.6597 42.2241 16.2955 41.7554 16.7642C41.2867 17.2329 40.6509 17.4962 39.9881 17.4962C39.3252 17.4962 38.6895 17.2329 38.2207 16.7642C37.752 16.2955 37.4887 15.6597 37.4887 14.9969V4.99937C37.4887 4.3365 37.752 3.70077 38.2207 3.23205C38.6895 2.76333 39.3252 2.5 39.9881 2.5C40.6509 2.5 41.2867 2.76333 41.7554 3.23205C42.2241 3.70077 42.4874 4.3365 42.4874 4.99937ZM54.9843 17.4962C54.3214 17.4962 53.6857 17.7596 53.217 18.2283C52.7482 18.697 52.4849 19.3327 52.4849 19.9956V29.9931C52.4849 30.656 52.7482 31.2917 53.217 31.7604C53.6857 32.2291 54.3214 32.4925 54.9843 32.4925C55.6472 32.4925 56.2829 32.2291 56.7516 31.7604C57.2203 31.2917 57.4837 30.656 57.4837 29.9931V19.9956C57.4837 19.3327 57.2203 18.697 56.7516 18.2283C56.2829 17.7596 55.6472 17.4962 54.9843 17.4962ZM39.9881 62.4849C39.3252 62.4849 38.6895 62.7483 38.2207 63.217C37.752 63.6857 37.4887 64.3214 37.4887 64.9843V74.9818C37.4887 75.6447 37.752 76.2804 38.2207 76.7491C38.6895 77.2179 39.3252 77.4812 39.9881 77.4812C40.6509 77.4812 41.2867 77.2179 41.7554 76.7491C42.2241 76.2804 42.4874 75.6447 42.4874 74.9818V64.9843C42.4874 64.3214 42.2241 63.6857 41.7554 63.217C41.2867 62.7483 40.6509 62.4849 39.9881 62.4849ZM39.9881 24.9944C39.3252 24.9944 38.6895 25.2577 38.2207 25.7264C37.752 26.1951 37.4887 26.8309 37.4887 27.4937V52.4875C37.4887 53.1503 37.752 53.7861 38.2207 54.2548C38.6895 54.7235 39.3252 54.9868 39.9881 54.9868C40.6509 54.9868 41.2867 54.7235 41.7554 54.2548C42.2241 53.7861 42.4874 53.1503 42.4874 52.4875V27.4937C42.4874 26.8309 42.2241 26.1951 41.7554 25.7264C41.2867 25.2577 40.6509 24.9944 39.9881 24.9944ZM24.9918 17.4962C24.3289 17.4962 23.6932 17.7596 23.2245 18.2283C22.7558 18.697 22.4924 19.3327 22.4924 19.9956V37.4912C22.4924 38.1541 22.7558 38.7898 23.2245 39.2585C23.6932 39.7273 24.3289 39.9906 24.9918 39.9906C25.6547 39.9906 26.2904 39.7273 26.7591 39.2585C27.2279 38.7898 27.4912 38.1541 27.4912 37.4912V19.9956C27.4912 19.3327 27.2279 18.697 26.7591 18.2283C26.2904 17.7596 25.6547 17.4962 24.9918 17.4962ZM54.9843 39.9906C54.3214 39.9906 53.6857 40.2539 53.217 40.7226C52.7482 41.1914 52.4849 41.8271 52.4849 42.49V59.9856C52.4849 60.6484 52.7482 61.2842 53.217 61.7529C53.6857 62.2216 54.3214 62.4849 54.9843 62.4849C55.6472 62.4849 56.2829 62.2216 56.7516 61.7529C57.2203 61.2842 57.4837 60.6484 57.4837 59.9856V42.49C57.4837 41.8271 57.2203 41.1914 56.7516 40.7226C56.2829 40.2539 55.6472 39.9906 54.9843 39.9906ZM9.99559 32.4925C9.33271 32.4925 8.69699 32.7558 8.22826 33.2245C7.75954 33.6932 7.49622 34.329 7.49622 34.9918V44.9893C7.49622 45.6522 7.75954 46.2879 8.22826 46.7567C8.69699 47.2254 9.33271 47.4887 9.99559 47.4887C10.6585 47.4887 11.2942 47.2254 11.7629 46.7567C12.2316 46.2879 12.495 45.6522 12.495 44.9893V34.9918C12.495 34.329 12.2316 33.6932 11.7629 33.2245C11.2942 32.7558 10.6585 32.4925 9.99559 32.4925ZM24.9918 47.4887C24.3289 47.4887 23.6932 47.752 23.2245 48.2208C22.7558 48.6895 22.4924 49.3252 22.4924 49.9881V59.9856C22.4924 60.6484 22.7558 61.2842 23.2245 61.7529C23.6932 62.2216 24.3289 62.4849 24.9918 62.4849C25.6547 62.4849 26.2904 62.2216 26.7591 61.7529C27.2279 61.2842 27.4912 60.6484 27.4912 59.9856V49.9881C27.4912 49.3252 27.2279 48.6895 26.7591 48.2208C26.2904 47.752 25.6547 47.4887 24.9918 47.4887ZM69.9805 32.4925C69.3176 32.4925 68.6819 32.7558 68.2132 33.2245C67.7445 33.6932 67.4811 34.329 67.4811 34.9918V44.9893C67.4811 45.6522 67.7445 46.2879 68.2132 46.7567C68.6819 47.2254 69.3176 47.4887 69.9805 47.4887C70.6434 47.4887 71.2791 47.2254 71.7478 46.7567C72.2166 46.2879 72.4799 45.6522 72.4799 44.9893V34.9918C72.4799 34.329 72.2166 33.6932 71.7478 33.2245C71.2791 32.7558 70.6434 32.4925 69.9805 32.4925Z"/>
</svg>
